<?xml version="1.0" standalone="no"?>
<!DOCTYPE svg PUBLIC "-//W3C//DTD SVG 20010904//EN"
 "http://www.w3.org/TR/2001/REC-SVG-20010904/DTD/svg10.dtd">
<svg version="1.0" xmlns="http://www.w3.org/2000/svg"
 width="410.000000pt" height="318.000000pt" viewBox="0 0 410.000000 318.000000"
 preserveAspectRatio="xMidYMid meet">

<g transform="translate(0.000000,318.000000) scale(0.100000,-0.100000)"
fill="#000000" stroke="none">
<path d="M470 2782 c-7 -3 -10 -422 -10 -1224 0 -1038 2 -1219 14 -1215 14 5
216 122 1112 640 253 147 467 267 475 267 11 0 310 -168 389 -219 12 -7 -26
-50 -187 -213 l-203 -203 -168 168 c-92 92 -172 167 -179 167 -6 0 -44 -19
-83 -41 l-72 -42 251 -251 251 -251 595 595 c327 327 595 597 595 601 0 3
-179 108 -397 235 -409 235 -469 277 -499 350 -71 169 1 362 161 436 50 23 54
23 508 26 l457 3 0 -981 c0 -539 -4 -980 -8 -980 -5 0 -145 79 -313 176 -167
97 -310 179 -317 182 -12 4 -35 -17 -118 -109 -14 -15 -9 -20 53 -56 402 -233
859 -496 870 -500 11 -4 13 214 13 1216 0 970 -3 1221 -12 1221 -187 6 -1103
-3 -1133 -11 -120 -33 -257 -143 -309 -250 -100 -205 -65 -431 89 -583 48 -47
122 -94 360 -232 165 -95 301 -176 302 -181 2 -4 -79 -90 -179 -190 l-183
-181 -268 155 -267 155 -268 -155 -267 -155 -183 181 c-100 100 -181 186 -179
190 1 5 137 86 302 181 242 140 312 185 360 233 244 242 171 651 -142 801
l-78 37 -170 2 c-334 5 -955 8 -965 5z m1135 -200 c160 -74 232 -267 161 -436
-20 -48 -89 -115 -161 -156 -142 -81 -730 -422 -734 -426 -3 -3 107 -117 244
-254 137 -137 247 -251 245 -253 -13 -10 -688 -397 -702 -402 -17 -7 -18 44
-18 974 l0 982 458 -3 c453 -3 457 -3 507 -26z"/>
</g>
</svg>
